<svg viewBox="0 0 560 120" fill="none" xmlns="http://www.w3.org/2000/svg">
  <!-- EnvDiff Wordmark - Dark Mode -->
  <rect width="560" height="120" fill="none"/>
  
  <!-- EnvDiff text in white -->
  <g fill="white">
    <!-- E -->
    <path d="M20 25h60v24H52v10h24v22H52v12h28v24H20V25z"/>
    <!-- n -->
    <path d="M100 45h26v8c6-6 13-10 22-10 16 0 26 11 26 28v46h-28V77c0-7-4-11-10-11-6 0-10 4-10 11v40h-26V45z"/>
    <!-- v -->
    <path d="M186 45h26l14 38 14-38h26l-24 72h-32l-24-72z"/>
    <!-- D -->
    <path d="M282 25h40c28 0 48 18 48 46s-20 46-48 46h-40V25zm32 68h8c12 0 20-8 20-22s-8-22-20-22h-8v44z"/>
    <!-- i -->
    <path d="M382 25h28v18h-28V25zm0 20h28v72h-28V45z"/>
    <!-- f -->
    <path d="M428 25h28v20h12v22h-12v50h-28V67h-8V45h8V25z"/>
    <!-- f -->
    <path d="M486 25h28v20h12v22h-12v50h-28V67h-8V45h8V25z"/>
  </g>
</svg>
